<?xml version="1.0" encoding="UTF-8" standalone="no"?>
<!-- Created with Inkscape (http://www.inkscape.org/) -->

<svg
   width="192.65088mm"
   height="158.82648mm"
   viewBox="0 0 192.65088 158.82648"
   version="1.1"
   id="svg5"
   xml:space="preserve"
   xmlns:inkscape="http://www.inkscape.org/namespaces/inkscape"
   xmlns:sodipodi="http://sodipodi.sourceforge.net/DTD/sodipodi-0.dtd"
   xmlns:xlink="http://www.w3.org/1999/xlink"
   xmlns="http://www.w3.org/2000/svg"
   xmlns:svg="http://www.w3.org/2000/svg"><sodipodi:namedview
     id="namedview7"
     pagecolor="#ffffff"
     bordercolor="#000000"
     borderopacity="0.24705882"
     inkscape:showpageshadow="2"
     inkscape:pageopacity="0"
     inkscape:pagecheckerboard="0"
     inkscape:deskcolor="#d1d1d1"
     inkscape:document-units="mm"
     showgrid="false" /><defs
     id="defs2"><color-profile
       name="Agfa-:-Swop-Standard"
       xlink:href="../../../../../WINDOWS/system32/spool/drivers/color/RSWOP.icm"
       id="color-profile32118" /></defs><g
     inkscape:label="Layer 1"
     inkscape:groupmode="layer"
     id="layer1"
     transform="translate(-9.7459814,-87.390615)"><g
       id="g2969"
       transform="matrix(-1.6487707,0,0,1.6487707,218.46576,-56.696462)"
       inkscape:export-filename="avatar.png"
       inkscape:export-xdpi="96"
       inkscape:export-ydpi="96"><path
         d="m 44.787402,152.50588 a 4.2995353,7.0673568 0 0 0 0.310659,2.64054 4.1110762,6.7575773 0 0 0 0.281686,0.94192 4.3614627,7.1691499 0 0 0 0.48611,1.10596 4.3074418,7.0803531 0 0 0 3.238582,2.41035 H 112.091 a 4.3170369,7.096125 0 0 0 0,-14.19225 H 49.104439 a 4.3212927,7.1031205 0 0 0 -4.317037,7.09348 z"
         fill="#e6e6e6"
         id="path754"
         style="stroke-width:0.206369" /><path
         d="m 9.7459861,156.5593 a 45.70629,76.465641 0 0 0 4.4472079,7.65969 H 122.14395 a 45.70629,76.465641 0 0 0 4.4472,-7.65969 z"
         fill="#3f3d56"
         id="path760"
         style="stroke-width:0.204558" /><path
         d="m 58.736235,130.94499 v 27.13566 h 19.010313 v -27.13566 a 0.91228332,0.91228332 0 0 0 -0.642938,-0.87313 0.83994359,0.83994359 0 0 0 -0.272521,-0.0423 H 59.65434 a 0.91632351,0.91632351 0 0 0 -0.918105,0.91546 z m 7.418917,9.32391 a 2.0294415,2.0294415 0 0 1 4.058708,0 v 3.14854 a 2.0293806,2.0293806 0 0 1 -4.058708,0 z"
         fill="#2f2e41"
         id="path762"
         style="stroke-width:0.264583" /><path
         d="m 58.678027,157.21282 v 2.61673 a 0.51493737,0.51493737 0 0 0 0.510646,0.51329 H 77.29411 a 0.51321493,0.51321493 0 0 0 0.510646,-0.51329 v -2.61673 z"
         fill="#3f3d56"
         id="path764"
         style="stroke-width:0.264583" /><path
         d="m 28.830382,90.061569 v 49.545871 a 2.3831391,2.3831391 0 0 0 2.38125,2.38125 h 73.421878 a 2.3831285,2.3831285 0 0 0 2.38125,-2.38125 V 90.061569 a 2.3842847,2.3842847 0 0 0 -2.38125,-2.378604 H 31.211632 a 2.3842953,2.3842953 0 0 0 -2.38125,2.378604 z"
         fill="#3f3d56"
         id="path766"
         style="fill:#2f2e41;fill-opacity:1;stroke-width:0.264583" /><path
         d="m 30.552819,90.678048 v 48.318212 a 1.2748498,1.2748498 0 0 0 1.272646,1.27264 h 72.196855 a 1.2748392,1.2748392 0 0 0 1.27264,-1.27264 V 90.678048 a 1.2754134,1.2754134 0 0 0 -1.27264,-1.275291 H 31.825465 a 1.2754239,1.2754239 0 0 0 -1.272646,1.275291 z"
         fill="#6c63ff"
         id="path768"
         style="fill:#0c405f;fill-opacity:1;stroke-width:0.264583" /><path
         d="m 45.274236,160.95932 a 0.78009484,0.78009484 0 0 0 0.613833,0.29369 h 42.952458 a 0.79037391,0.79037391 0 0 0 0.772583,-0.9525 l -0.66675,-3.16707 a 0.79179737,0.79179737 0 0 0 -0.492125,-0.57414 0.76584968,0.76584968 0 0 0 -0.280458,-0.0529 H 46.552173 a 0.76578618,0.76578618 0 0 0 -0.280458,0.0529 0.79173387,0.79173387 0 0 0 -0.492125,0.57414 l -0.66675,3.16707 a 0.78976537,0.78976537 0 0 0 0.161396,0.65881 z"
         fill="#2f2e41"
         id="path770"
         style="stroke-width:0.264583" /><rect
         x="-87.868713"
         y="-157.87051"
         width="1.3229166"
         height="0.79374999"
         rx="0.12916693"
         transform="scale(-1)"
         fill="#3f3d56"
         id="rect772"
         style="stroke-width:0.264583" /><rect
         x="-85.222878"
         y="-157.87051"
         width="1.3229166"
         height="0.79374999"
         rx="0.12916693"
         transform="scale(-1)"
         fill="#3f3d56"
         id="rect774"
         style="stroke-width:0.264583" /><rect
         x="-82.577049"
         y="-157.87051"
         width="1.3229166"
         height="0.79374999"
         rx="0.12916693"
         transform="scale(-1)"
         fill="#3f3d56"
         id="rect776"
         style="stroke-width:0.264583" /><rect
         x="-79.931213"
         y="-157.87051"
         width="1.3229166"
         height="0.79374999"
         rx="0.12916693"
         transform="scale(-1)"
         fill="#3f3d56"
         id="rect778"
         style="stroke-width:0.264583" /><rect
         x="-77.285378"
         y="-157.87051"
         width="1.3229166"
         height="0.79374999"
         rx="0.12916693"
         transform="scale(-1)"
         fill="#3f3d56"
         id="rect780"
         style="stroke-width:0.264583" /><rect
         x="-74.639549"
         y="-157.87051"
         width="1.3229166"
         height="0.79374999"
         rx="0.12916693"
         transform="scale(-1)"
         fill="#3f3d56"
         id="rect782"
         style="stroke-width:0.264583" /><rect
         x="-71.993713"
         y="-157.87051"
         width="1.3229166"
         height="0.79374999"
         rx="0.12916693"
         transform="scale(-1)"
         fill="#3f3d56"
         id="rect784"
         style="stroke-width:0.264583" /><rect
         x="-69.347878"
         y="-157.87051"
         width="1.3229166"
         height="0.79374999"
         rx="0.12916693"
         transform="scale(-1)"
         fill="#3f3d56"
         id="rect786"
         style="stroke-width:0.264583" /><rect
         x="-66.702049"
         y="-157.87051"
         width="1.3229166"
         height="0.79374999"
         rx="0.12916693"
         transform="scale(-1)"
         fill="#3f3d56"
         id="rect788"
         style="stroke-width:0.264583" /><rect
         x="-64.056213"
         y="-157.87051"
         width="1.3229166"
         height="0.79374999"
         rx="0.12916693"
         transform="scale(-1)"
         fill="#3f3d56"
         id="rect790"
         style="stroke-width:0.264583" /><rect
         x="-61.410374"
         y="-157.87051"
         width="1.3229166"
         height="0.79374999"
         rx="0.12916693"
         transform="scale(-1)"
         fill="#3f3d56"
         id="rect792"
         style="stroke-width:0.264583" /><rect
         x="-58.764549"
         y="-157.87051"
         width="1.3229166"
         height="0.79374999"
         rx="0.12916693"
         transform="scale(-1)"
         fill="#3f3d56"
         id="rect794"
         style="stroke-width:0.264583" /><rect
         x="-56.118713"
         y="-157.87051"
         width="1.3229166"
         height="0.79374999"
         rx="0.12916693"
         transform="scale(-1)"
         fill="#3f3d56"
         id="rect796"
         style="stroke-width:0.264583" /><rect
         x="-53.472874"
         y="-157.87051"
         width="1.3229166"
         height="0.79374999"
         rx="0.12916693"
         transform="scale(-1)"
         fill="#3f3d56"
         id="rect798"
         style="stroke-width:0.264583" /><rect
         x="-50.827049"
         y="-157.87051"
         width="1.3229166"
         height="0.79374999"
         rx="0.12916693"
         transform="scale(-1)"
         fill="#3f3d56"
         id="rect800"
         style="stroke-width:0.264583" /><rect
         x="-48.18121"
         y="-157.87051"
         width="1.3229166"
         height="0.79374999"
         rx="0.12916693"
         transform="scale(-1)"
         fill="#3f3d56"
         id="rect802"
         style="stroke-width:0.264583" /><rect
         x="-87.899979"
         y="-159.19342"
         width="1.3229166"
         height="0.79374999"
         rx="0.12916693"
         transform="scale(-1)"
         fill="#3f3d56"
         id="rect804"
         style="stroke-width:0.264583" /><rect
         x="-85.254143"
         y="-159.19342"
         width="1.3229166"
         height="0.79374999"
         rx="0.12916693"
         transform="scale(-1)"
         fill="#3f3d56"
         id="rect806"
         style="stroke-width:0.264583" /><rect
         x="-82.608315"
         y="-159.19342"
         width="1.3229166"
         height="0.79374999"
         rx="0.12916693"
         transform="scale(-1)"
         fill="#3f3d56"
         id="rect808"
         style="stroke-width:0.264583" /><rect
         x="-79.962479"
         y="-159.19342"
         width="1.3229166"
         height="0.79374999"
         rx="0.12916693"
         transform="scale(-1)"
         fill="#3f3d56"
         id="rect810"
         style="stroke-width:0.264583" /><rect
         x="-77.316643"
         y="-159.19342"
         width="1.3229166"
         height="0.79374999"
         rx="0.12916693"
         transform="scale(-1)"
         fill="#3f3d56"
         id="rect812"
         style="stroke-width:0.264583" /><rect
         x="-74.670815"
         y="-159.19342"
         width="1.3229166"
         height="0.79374999"
         rx="0.12916693"
         transform="scale(-1)"
         fill="#3f3d56"
         id="rect814"
         style="stroke-width:0.264583" /><rect
         x="-72.024979"
         y="-159.19342"
         width="1.3229166"
         height="0.79374999"
         rx="0.12916693"
         transform="scale(-1)"
         fill="#3f3d56"
         id="rect816"
         style="stroke-width:0.264583" /><rect
         x="-69.379143"
         y="-159.19342"
         width="1.3229166"
         height="0.79374999"
         rx="0.12916693"
         transform="scale(-1)"
         fill="#3f3d56"
         id="rect818"
         style="stroke-width:0.264583" /><rect
         x="-66.733315"
         y="-159.19342"
         width="1.3229166"
         height="0.79374999"
         rx="0.12916693"
         transform="scale(-1)"
         fill="#3f3d56"
         id="rect820"
         style="stroke-width:0.264583" /><rect
         x="-64.087479"
         y="-159.19342"
         width="1.3229166"
         height="0.79374999"
         rx="0.12916693"
         transform="scale(-1)"
         fill="#3f3d56"
         id="rect822"
         style="stroke-width:0.264583" /><rect
         x="-61.441639"
         y="-159.19342"
         width="1.3229166"
         height="0.79374999"
         rx="0.12916693"
         transform="scale(-1)"
         fill="#3f3d56"
         id="rect824"
         style="stroke-width:0.264583" /><rect
         x="-58.795815"
         y="-159.19342"
         width="1.3229166"
         height="0.79374999"
         rx="0.12916693"
         transform="scale(-1)"
         fill="#3f3d56"
         id="rect826"
         style="stroke-width:0.264583" /><rect
         x="-56.149979"
         y="-159.19342"
         width="1.3229166"
         height="0.79374999"
         rx="0.12916693"
         transform="scale(-1)"
         fill="#3f3d56"
         id="rect828"
         style="stroke-width:0.264583" /><rect
         x="-53.50415"
         y="-159.19342"
         width="1.3229166"
         height="0.79374999"
         rx="0.12916693"
         transform="scale(-1)"
         fill="#3f3d56"
         id="rect830"
         style="stroke-width:0.264583" /><rect
         x="-50.858315"
         y="-159.19342"
         width="1.3229166"
         height="0.79374999"
         rx="0.12916693"
         transform="scale(-1)"
         fill="#3f3d56"
         id="rect832"
         style="stroke-width:0.264583" /><rect
         x="-48.212479"
         y="-159.19342"
         width="1.3229166"
         height="0.79374999"
         rx="0.12916693"
         transform="scale(-1)"
         fill="#3f3d56"
         id="rect834"
         style="stroke-width:0.264583" /><rect
         x="-75.199974"
         y="-160.78093"
         width="10.583333"
         height="0.79374999"
         rx="0.12916693"
         transform="scale(-1)"
         fill="#3f3d56"
         id="rect836"
         style="stroke-width:0.264583" /><path
         d="M 35.453397,96.0588 H 103.0077 a 0.26870818,0.26870818 0 0 0 0,-0.537286 H 35.453397 a 0.26870818,0.26870818 0 0 0 0,0.537286 z"
         fill="#3f3d56"
         id="path838"
         style="fill:#5c838a;fill-opacity:1;stroke-width:0.264583" /><ellipse
         cx="98.409195"
         cy="92.540398"
         rx="1.5743846"
         ry="1.6094711"
         fill="#3f3d56"
         id="ellipse840"
         style="fill:#5c838a;fill-opacity:1;stroke-width:0.264583" /><ellipse
         cx="92.970413"
         cy="92.540398"
         rx="1.5743846"
         ry="1.6094711"
         fill="#3f3d56"
         id="ellipse842"
         style="fill:#5c838a;fill-opacity:1;stroke-width:0.264583" /><ellipse
         cx="87.531639"
         cy="92.540398"
         rx="1.5743846"
         ry="1.6094711"
         fill="#3f3d56"
         id="ellipse844"
         style="fill:#5c838a;fill-opacity:1;stroke-width:0.264583" /><path
         d="m 38.440048,91.622611 a 0.28966583,0.28966583 0 0 0 0.288396,0.291042 h 3.862917 a 0.29244395,0.29244395 0 0 0 0,-0.58473 h -3.862917 a 0.29194125,0.29194125 0 0 0 -0.288396,0.293688 z"
         fill="#3f3d56"
         id="path846"
         style="fill:#5c838a;fill-opacity:1;stroke-width:0.264583" /><path
         d="m 38.440048,92.720632 a 0.28964995,0.28964995 0 0 0 0.288396,0.291041 h 3.862917 a 0.29243602,0.29243602 0 0 0 0,-0.584729 h -3.862917 a 0.29194125,0.29194125 0 0 0 -0.288396,0.293688 z"
         fill="#3f3d56"
         id="path848"
         style="fill:#5c838a;fill-opacity:1;stroke-width:0.264583" /><path
         d="m 38.440048,93.816007 a 0.29194125,0.29194125 0 0 0 0.288396,0.293687 h 3.862917 a 0.29244395,0.29244395 0 0 0 0,-0.584729 h -3.862917 a 0.28965525,0.28965525 0 0 0 -0.288396,0.291042 z"
         fill="#3f3d56"
         id="path850"
         style="fill:#5c838a;fill-opacity:1;stroke-width:0.264583" /><rect
         x="37.483841"
         y="102.30206"
         width="2.9120281"
         height="1.5239788"
         rx="0.76198941"
         fill="#e6e6e6"
         id="rect852"
         style="stroke-width:0.264583" /><rect
         x="53.358841"
         y="102.30206"
         width="2.9120281"
         height="1.5239788"
         rx="0.76198941"
         fill="#e6e6e6"
         id="rect854"
         style="stroke-width:0.264583" /><rect
         x="57.856754"
         y="102.30206"
         width="2.9120281"
         height="1.5239788"
         rx="0.76198941"
         fill="#e6e6e6"
         id="rect856"
         style="stroke-width:0.264583" /><rect
         x="41.801891"
         y="102.17503"
         width="10.150925"
         height="1.5239788"
         rx="0.76198941"
         fill="#e6e6e6"
         id="rect858"
         style="stroke-width:0.264583" /><rect
         x="62.968555"
         y="102.17503"
         width="10.150925"
         height="1.5239788"
         rx="0.76198941"
         fill="#e6e6e6"
         id="rect860"
         style="stroke-width:0.264583" /><rect
         x="41.717175"
         y="105.74165"
         width="2.9120281"
         height="1.5239788"
         rx="0.76198941"
         fill="#e6e6e6"
         id="rect862"
         style="stroke-width:0.264583" /><rect
         x="57.592175"
         y="105.74165"
         width="2.9120281"
         height="1.5239788"
         rx="0.76198941"
         fill="#e6e6e6"
         id="rect864"
         style="stroke-width:0.264583" /><rect
         x="62.090088"
         y="105.74165"
         width="2.9120281"
         height="1.5239788"
         rx="0.76198941"
         fill="#e6e6e6"
         id="rect866"
         style="stroke-width:0.264583" /><rect
         x="46.035225"
         y="105.61461"
         width="10.150925"
         height="1.5239788"
         rx="0.76198941"
         fill="#e6e6e6"
         id="rect868"
         style="stroke-width:0.264583" /><rect
         x="67.201889"
         y="105.61461"
         width="10.150925"
         height="1.5239788"
         rx="0.76198941"
         fill="#e6e6e6"
         id="rect870"
         style="stroke-width:0.264583" /><rect
         x="45.950508"
         y="109.18123"
         width="2.9120281"
         height="1.5239788"
         rx="0.76198941"
         fill="#e6e6e6"
         id="rect872"
         style="stroke-width:0.264583" /><rect
         x="61.825504"
         y="109.18123"
         width="2.9120281"
         height="1.5239788"
         rx="0.76198941"
         fill="#e6e6e6"
         id="rect874"
         style="stroke-width:0.264583" /><rect
         x="66.323425"
         y="109.18123"
         width="2.9120281"
         height="1.5239788"
         rx="0.76198941"
         fill="#e6e6e6"
         id="rect876"
         style="stroke-width:0.264583" /><rect
         x="50.268559"
         y="109.05419"
         width="10.150925"
         height="1.5239788"
         rx="0.76198941"
         fill="#e6e6e6"
         id="rect878"
         style="stroke-width:0.264583" /><rect
         x="71.435226"
         y="109.05419"
         width="10.150925"
         height="1.5239788"
         rx="0.76198941"
         fill="#e6e6e6"
         id="rect880"
         style="stroke-width:0.264583" /><rect
         x="50.183838"
         y="112.62082"
         width="2.9120281"
         height="1.5239788"
         rx="0.76198941"
         fill="#e6e6e6"
         id="rect882"
         style="stroke-width:0.264583" /><rect
         x="66.058838"
         y="112.62082"
         width="2.9120281"
         height="1.5239788"
         rx="0.76198941"
         fill="#e6e6e6"
         id="rect884"
         style="stroke-width:0.264583" /><rect
         x="70.556755"
         y="112.62082"
         width="2.9120281"
         height="1.5239788"
         rx="0.76198941"
         fill="#e6e6e6"
         id="rect886"
         style="stroke-width:0.264583" /><rect
         x="54.501888"
         y="112.49377"
         width="10.150925"
         height="1.5239788"
         rx="0.76198941"
         fill="#e6e6e6"
         id="rect888"
         style="stroke-width:0.264583" /><rect
         x="53.358841"
         y="126.29806"
         width="2.9120281"
         height="1.5239788"
         rx="0.76198941"
         fill="#e6e6e6"
         id="rect890"
         style="stroke-width:0.264583" /><rect
         x="57.856754"
         y="126.29806"
         width="2.9120281"
         height="1.5239788"
         rx="0.76198941"
         fill="#e6e6e6"
         id="rect892"
         style="stroke-width:0.264583" /><rect
         x="62.968555"
         y="126.4251"
         width="10.150925"
         height="1.5239788"
         rx="0.76198941"
         fill="#e6e6e6"
         id="rect894"
         style="stroke-width:0.264583" /><rect
         x="37.483841"
         y="126.29806"
         width="2.9120281"
         height="1.5239788"
         rx="0.76198941"
         fill="#e6e6e6"
         id="rect896"
         style="stroke-width:0.264583" /><rect
         x="41.801891"
         y="126.4251"
         width="10.150925"
         height="1.5239788"
         rx="0.76198941"
         fill="#e6e6e6"
         id="rect898"
         style="stroke-width:0.264583" /><rect
         x="41.717175"
         y="122.85847"
         width="2.9120281"
         height="1.5239788"
         rx="0.76198941"
         fill="#e6e6e6"
         id="rect900"
         style="stroke-width:0.264583" /><rect
         x="57.592175"
         y="122.85847"
         width="2.9120281"
         height="1.5239788"
         rx="0.76198941"
         fill="#e6e6e6"
         id="rect902"
         style="stroke-width:0.264583" /><rect
         x="62.090088"
         y="122.85847"
         width="2.9120281"
         height="1.5239788"
         rx="0.76198941"
         fill="#e6e6e6"
         id="rect904"
         style="stroke-width:0.264583" /><rect
         x="46.035225"
         y="122.98552"
         width="10.150925"
         height="1.5239788"
         rx="0.76198941"
         fill="#e6e6e6"
         id="rect906"
         style="stroke-width:0.264583" /><rect
         x="45.950508"
         y="119.41889"
         width="2.9120281"
         height="1.5239788"
         rx="0.76198941"
         fill="#e6e6e6"
         id="rect908"
         style="stroke-width:0.264583" /><rect
         x="61.825504"
         y="119.41889"
         width="2.9120281"
         height="1.5239788"
         rx="0.76198941"
         fill="#e6e6e6"
         id="rect910"
         style="stroke-width:0.264583" /><rect
         x="66.323425"
         y="119.41889"
         width="2.9120281"
         height="1.5239788"
         rx="0.76198941"
         fill="#e6e6e6"
         id="rect912"
         style="stroke-width:0.264583" /><rect
         x="50.268559"
         y="119.54594"
         width="10.150925"
         height="1.5239788"
         rx="0.76198941"
         fill="#e6e6e6"
         id="rect914"
         style="stroke-width:0.264583" /><rect
         x="50.183838"
         y="115.97931"
         width="2.9120281"
         height="1.5239788"
         rx="0.76198941"
         fill="#e6e6e6"
         id="rect916"
         style="stroke-width:0.264583" /><rect
         x="66.058838"
         y="115.97931"
         width="2.9120281"
         height="1.5239788"
         rx="0.76198941"
         fill="#e6e6e6"
         id="rect918"
         style="stroke-width:0.264583" /><rect
         x="70.556755"
         y="115.97931"
         width="2.9120281"
         height="1.5239788"
         rx="0.76198941"
         fill="#e6e6e6"
         id="rect920"
         style="stroke-width:0.264583" /><rect
         x="54.501888"
         y="116.10635"
         width="10.150925"
         height="1.5239788"
         rx="0.76198941"
         fill="#e6e6e6"
         id="rect922"
         style="stroke-width:0.264583" /><path
         d="m 34.643277,175.98765 c 0.161396,0.082 0.325438,0.16404 0.486834,0.24342 4.180416,2.09021 7.524734,3.27819 12.099395,4.57994 0.386292,-4.31271 0.759355,-11.89303 1.121834,-16.59202 0.09525,-1.21973 0.1905,-2.24367 0.283104,-2.96598 a 4.0169835,4.0169835 0 0 1 0.232833,-1.12448 l -0.01588,1.12448 -0.03969,2.96598 -0.230188,16.96243 a 76.355526,76.355526 0 0 0 17.420167,2.5109 c 0.306916,0.008 0.608541,0.0132 0.899583,0.0185 0.103188,0.003 0.203729,0.005 0.304271,0.005 0.330729,0.003 0.658812,0.005 0.989541,0.005 a 76.536327,76.536327 0 0 0 18.399125,-2.23044 c -0.129646,-4.26772 -0.259291,-11.76337 -0.383646,-17.27199 -0.02646,-1.07686 -0.05027,-2.07963 -0.07673,-2.96598 -0.05027,-1.89442 -0.103187,-3.25966 -0.153458,-3.7174 a 1.1538691,1.1538691 0 0 1 0.103187,0.25665 25.705297,25.705297 0 0 1 0.500063,3.46075 c 0.0926,0.88635 0.185208,1.88912 0.277812,2.96598 0.492125,5.72293 1.005417,13.50433 1.534584,16.80368 a 75.531296,75.531296 0 0 0 9.252479,-3.18294 q 2.381253,-0.99218 4.677833,-2.14047 c -0.29104,-1.905 -0.59531,-4.04019 -0.90752,-6.25475 -0.24342,-1.71715 -0.49477,-3.48192 -0.75142,-5.22552 -0.39687,-2.69346 -6.294435,-21.51592 -6.667484,-22.2303 -0.320146,-0.61118 -0.62443,-1.18798 -0.912813,-1.71979 -0.6985,-1.29116 -1.291166,-2.32039 -1.730375,-2.97127 a 14.619965,14.619965 0 0 0 -7.746999,-5.87639 l -0.07937,-0.0212 -0.05556,0.0238 -5.410729,-1.66158 -0.791104,-0.24342 -0.531813,-0.16404 -1.87325,-1.4261 -1.018646,-0.77523 -0.955145,-0.72761 -1.867959,-1.42081 -11.564937,0.71173 -2.251604,5.42131 -5.042958,1.84415 -0.0873,-0.0397 -0.07673,-0.0317 -0.07938,0.0212 a 14.633046,14.633046 0 0 0 -7.747,5.87639 c -0.248692,0.37306 -0.550333,0.86519 -0.891646,1.4605 -0.291041,0.50536 -0.608541,1.08215 -0.9525,1.71979 -0.489479,0.90752 -1.023937,1.93146 -1.590145,3.04007 -0.124355,0.24341 -0.251355,0.49212 -0.378355,0.74348 q -0.353218,0.69848 -0.71702,1.42609 c -0.563563,1.12448 -1.145646,2.29923 -1.727729,3.4925 -0.505355,1.03452 -1.016,3.16177 -1.518709,5.86845 -0.415396,2.24896 -0.828146,4.90009 -1.227666,7.65969 -0.523875,3.57717 0.03439,7.86077 -0.439209,11.15219 -0.02913,0.20905 -0.06088,0.41278 -0.08999,0.6165 z"
         fill="#3f3d56"
         id="path924"
         style="stroke-width:0.264583" /><polygon
         points="287.59,469.07 303.59,473.566 295.093,440.774 "
         opacity="0.2"
         id="polygon926"
         transform="matrix(0.26458333,0,0,0.26458333,9.7459943,31.249984)" /><path
         d="m 30.245902,150.89457 c 0.804334,11.08075 -0.0291,15.95967 4.410605,25.09573 a 75.712949,75.712949 0 0 0 12.572999,4.82071 q 0.674688,0.1905 1.352021,0.37041 a 76.355526,76.355526 0 0 0 17.420167,2.5109 c 0.306916,0.008 0.608541,0.0132 0.899583,0.0185 0.103188,0.003 0.203729,0.005 0.304271,0.005 0.330729,0.003 0.658812,0.005 0.989541,0.005 a 76.536327,76.536327 0 0 0 18.399125,-2.23044 q 0.904875,-0.22225 1.801813,-0.46831 a 75.531296,75.531296 0 0 0 9.252479,-3.18294 q 2.381254,-0.99218 4.677834,-2.14047 c 0.3466,-0.17463 0.69321,-0.34925 1.03452,-0.52917 1.75419,-3.08504 2.75167,-6.83683 2.77283,-11.34533 -1.21443,-7.76817 -73.204913,-19.62944 -75.887788,-12.93019 z"
         fill="#2f2e41"
         id="path928"
         style="stroke-width:0.264583" /><path
         d="m 30.247987,152.79221 c -0.04108,-0.68599 -0.08701,-1.3946 -0.140575,-2.13251 2.682875,-6.69925 74.673348,5.16202 75.887788,12.93019 -0.003,0.71221 -0.0338,1.40338 -0.085,2.07818 -2.941,-7.66717 -71.332913,-18.94054 -75.662203,-12.87586 z"
         opacity="0.2"
         id="path930"
         style="stroke-width:0.264583" /><path
         d="m 13.934163,156.44705 a 1.6976222,1.6976222 0 0 0 1.635948,1.14591 l 7.009294,-0.18038 a 1.6744077,1.6744077 0 0 0 1.582433,-1.23217 L 25.153732,145.574 a 2.5913291,2.5913291 0 0 0 1.121283,0.2304 2.5562269,2.5562269 0 0 0 -0.128302,-5.11084 2.16535,2.16535 0 0 0 -0.459367,0.0478 1.7323964,1.7323964 0 0 0 -1.289592,-0.55642 l -10.781906,0.27842 a 1.5489184,1.5489184 0 0 0 -0.265957,0.033 1.6839538,1.6839538 0 0 0 -1.289362,2.18669 z m 11.422978,-11.59321 0.70581,-2.5275 a 1.7214797,1.7214797 0 0 0 0.0054,-0.89285 c 0.03425,-9e-5 0.06446,-0.0163 0.0987,-0.0164 a 1.8284005,1.8284005 0 0 1 0.08561,3.65579 1.7211728,1.7211728 0 0 1 -0.895516,-0.21903 z"
         fill="#2f2e41"
         id="path932"
         style="stroke-width:0.264583" /><path
         d="m 13.349899,140.49634 c 0.229706,1.31342 2.81228,2.23675 5.917631,2.07626 2.855572,-0.13157 5.190453,-1.13427 5.618218,-2.32265 a 1.5941146,1.5941146 0 0 0 -0.487986,-0.0651 l -10.781906,0.27842 a 1.5489184,1.5489184 0 0 0 -0.265957,0.033 z"
         fill="#3f3d56"
         id="path934"
         style="stroke-width:0.264583" /><path
         d="m 19.836665,150.61874 a 0.13138944,0.13138944 0 0 0 0.03993,-0.0176 l 1.522188,-0.99633 a 0.13208529,0.13208529 0 0 0 8.5e-5,-0.22124 l -1.58215,-1.03629 a 0.13221758,0.13221758 0 1 0 -0.144971,0.22115 l 1.413116,0.92556 -1.353079,0.88581 a 0.13226785,0.13226785 0 0 0 0.104873,0.23892 z"
         fill="#6c63ff"
         id="path936"
         style="fill:#187bb6;fill-opacity:1;stroke-width:0.264583" /><path
         d="m 17.432449,150.72961 a 0.13229167,0.13229167 0 0 0 0.03336,-0.24299 l -1.403099,-0.80443 1.356149,-1.00733 a 0.13219561,0.13219561 0 1 0 -0.157692,-0.21221 l -1.518346,1.12782 a 0.13216202,0.13216202 0 0 0 0.01302,0.22087 l 1.578308,0.90479 a 0.13219112,0.13219112 0 0 0 0.09831,0.0135 z"
         fill="#6c63ff"
         id="path938"
         style="fill:#187bb6;fill-opacity:1;stroke-width:0.264583" /><path
         d="m 19.685252,151.49187 a 0.12755827,0.12755827 0 0 0 0.03625,-0.0153 0.13222817,0.13222817 0 0 0 0.04432,-0.1818 l -2.157804,-3.54763 a 0.13236046,0.13236046 0 0 0 -0.226062,0.13773 l 2.157804,3.54763 a 0.13237898,0.13237898 0 0 0 0.145494,0.0594 z"
         fill="#6c63ff"
         id="path940"
         style="fill:#187bb6;fill-opacity:1;stroke-width:0.264583" /><path
         d="m 50.747525,108.13523 a 15.232277,15.232277 0 0 0 30.172319,-4.20942 l -0.03016,-0.21612 a 15.232277,15.232277 0 0 0 -30.137494,4.42489 z"
         fill="#ffb6b6"
         id="path956"
         style="stroke-width:0.264583" /><path
         d="m 64.175595,120.73044 c -0.787548,-1.58634 -1.596821,-3.28959 -1.382882,-5.04772 0.21394,-1.75812 1.931763,-3.44363 3.625821,-2.92702 1.013021,0.30892 1.781217,1.30566 2.839225,1.35325 1.455738,0.0655 2.284659,-1.60309 2.733061,-2.98959 l 1.826221,-5.64685 c 3.522477,2.76726 -0.938612,-0.13386 3.424801,-1.14687 1.711822,-0.3974 3.43998,-1.16688 4.440071,-2.61191 1.00009,-1.44502 0.986557,-3.68126 -0.395428,-4.7668 -0.677622,-0.532268 -1.577838,-0.732348 -2.225606,-1.30057 a 2.4889936,2.4889936 0 0 1 1.972998,-4.337923 l -4.647764,-0.565089 1.375833,-2.508163 c -0.994748,0.789599 -2.382541,0.899983 -3.633223,0.679111 -1.250683,-0.220871 -2.429587,-0.731573 -3.653513,-1.070692 -5.875655,-1.627981 -12.688358,1.259647 -15.604444,6.614083 a 5.9472247,5.9472247 0 0 0 -6.478059,1.894065 c -1.238387,1.582656 -1.569553,3.690258 -1.611013,5.699408 a 24.703593,24.703593 0 0 0 2.556523,11.4349 c 0.547576,1.10371 1.194803,2.18641 2.125517,2.99374 0.930714,0.80734 11.448888,5.27969 12.662791,5.06884"
         fill="#2f2e41"
         id="path958"
         style="stroke-width:0.264583" /></g></g></svg>
